<svg clip-rule="evenodd" fill-rule="evenodd" height="1.707in" image-rendering="optimizeQuality" shape-rendering="geometricPrecision" text-rendering="geometricPrecision" viewBox="0 0 1707 1707" width="1.707in" xmlns="http://www.w3.org/2000/svg"><g id="Layer_x0020_1"><path d="m625 1233c-38-6-70-32-84-67h-151c-176 0-319 143-319 319v188h143v-132c0-22 33-22 33 0v132h815c-195-81-309-294-259-507h-60c-14 35-46 61-85 67v134c0 22-33 22-33 0zm605 309c-151 0-275-123-275-274s124-274 275-274 275 123 275 274-124 274-275 274zm0-515c-133 0-241 108-241 241s108 241 241 241 241-108 241-241-108-241-241-241zm120 313h-240c-40 0-73-32-73-72s33-73 73-73h240c40 0 73 33 73 73s-33 72-73 72zm-240-112c-52 0-52 79 0 79h240c52 0 52-79 0-79zm120 382c-188 0-342-153-342-342s154-342 342-342 342 153 342 342-154 342-342 342zm0-651c-170 0-308 139-308 309s138 309 308 309 308-139 308-309-138-309-308-309zm0 747h-1175c-10 0-17-7-17-16v-205c0-194 158-352 352-352h143v-109c-122-41-212-150-230-278-108-4-119-158-15-180-14-30-33-82-42-140-18-124 22-220 116-278 8-16 37-68 102-106 69-41 194-72 396 8 12 5 14 22 3 29-20 15-41 32-50 44 58 17 166 46 211 147 34 76 24 175-28 296 105 21 94 177-15 180-17 130-108 237-230 278v109h62c57-176 222-303 417-303 242 0 439 196 439 438s-197 438-439 438zm0-843c-224 0-405 182-405 405s182 405 405 405 405-182 405-405-182-405-405-405zm-588-5c-50 0-113-46-86-67 24-19 28 34 86 34 59 0 61-53 86-34 27 20-33 67-86 67zm135-190c-22 0-17-28-17-53 0-22 33-22 33 0 0 24 6 53-16 53zm-269 0c-22 0-17-28-17-53 0-22 33-22 33 0 0 24 6 53-16 53zm79-89c-20 0-25-39-76-39-59 0-61 55-86 36-28-21 35-69 86-69 53 0 113 50 86 69-3 2-7 3-10 3zm263 0c-19 0-24-39-76-39-58 0-61 55-86 36-28-21 36-69 86-69 55 0 113 51 86 69-3 2-7 3-10 3zm-550 134v-115c-67 9-69 107 0 115zm34 12c1 2 1 3 1 5 12 125 99 228 215 264 3 0 6 1 9 3 26 7 54 11 83 11s57-4 84-12c2-1 5-2 8-2 116-36 203-139 215-264l2-30v-116c2-18 5-122-76-135-32-5-48 5-79 10-38 6-117 9-213-47-78-47-135-60-173-40-44 24-69 94-77 217zm650-127v115c70-7 69-108 0-115zm-354-565c-191 0-234 133-247 141-129 78-125 219-77 349 27-197 121-243 294-140 92 55 167 51 217 37 81-21 142 16 162 98 36-96 41-175 15-234-37-84-128-111-176-125-29-9-43-13-43-31 2-19 24-41 45-58-69-24-133-37-190-37zm-64 1000v92c0 42 34 76 76 76s76-34 76-76v-92c-50 11-102 11-152 0z"/><path d="m306 523c27-197 121-243 294-140 92 55 167 51 217 37 81-21 142 16 162 98 36-96 41-175 15-234-37-84-128-111-176-125-29-9-43-13-43-31 2-19 24-41 45-58-69-24-133-37-190-37-191 0-234 133-247 141-129 78-125 219-77 349z" fill="#c46f66"/><path d="m625 1233c-38-6-70-32-84-67h-151c-176 0-319 143-319 319v188h143v-132c0-22 33-22 33 0v132h815c-195-81-309-294-259-507h-60c-14 35-46 61-85 67v134c0 22-33 22-33 0z" fill="#f6ca56"/><g fill="#ffb192"><path d="m726 996c2-1 5-2 8-2 116-36 203-139 215-264l2-30v-116c2-18 5-122-76-135-32-5-48 5-79 10-38 6-117 9-213-47-78-47-135-60-173-40-44 24-69 94-77 217l1 136c1 2 1 3 1 5 12 125 99 228 215 264 3 0 6 1 9 3 26 7 54 11 83 11s57-4 84-12zm2-205c27 20-33 67-86 67-50 0-113-46-86-67 24-19 28 34 86 34 59 0 61-53 86-34zm49-123c-22 0-17-28-17-53 0-22 33-22 33 0 0 24 6 53-16 53zm-253-53c0 24 6 53-16 53s-17-28-17-53c0-22 33-22 33 0zm63-36c-20 0-25-39-76-39-59 0-61 55-86 36-28-21 35-69 86-69 53 0 113 50 86 69-3 2-7 3-10 3zm263 0c-19 0-24-39-76-39-58 0-61 55-86 36-28-21 36-69 86-69 55 0 113 51 86 69-3 2-7 3-10 3z"/><path d="m718 1033c-50 11-102 11-152 0v92c0 42 34 76 76 76s76-34 76-76z"/><path d="m300 713v-115c-67 9-69 107 0 115z"/><path d="m984 598v115c70-7 69-108 0-115z"/></g><path d="m1350 1228h-240c-52 0-52 79 0 79h240c52 0 52-79 0-79z" fill="#e91e63"/><path d="m1110 1195h240c40 0 73 33 73 73s-33 72-73 72h-240c-40 0-73-32-73-72s33-73 73-73zm120-168c-133 0-241 108-241 241s108 241 241 241 241-108 241-241-108-241-241-241z" fill="#e6e6e6"/><path d="m955 1268c0-151 124-274 275-274s275 123 275 274-124 274-275 274-275-123-275-274zm275-309c-170 0-308 139-308 309s138 309 308 309 308-139 308-309-138-309-308-309z" fill="#e91e63"/><path d="m888 1268c0-189 154-342 342-342s342 153 342 342-154 342-342 342-342-153-342-342zm342-405c-224 0-405 182-405 405s182 405 405 405 405-182 405-405-182-405-405-405z" fill="#feeb3b"/></g></svg>