<svg width="97" height="97" viewBox="0 0 97 97" fill="none" xmlns="http://www.w3.org/2000/svg">
<mask id="mask0_3335_6887" style="mask-type:alpha" maskUnits="userSpaceOnUse" x="0" y="0" width="97" height="97">
<path d="M48.5 97C75.2858 97 97 75.2858 97 48.5C97 21.7142 75.2858 0 48.5 0C21.7142 0 0 21.7142 0 48.5C0 75.2858 21.7142 97 48.5 97Z" fill="#EE6C4A"/>
</mask>
<g mask="url(#mask0_3335_6887)">
<path d="M48.5 97C75.2858 97 97 75.2858 97 48.5C97 21.7142 75.2858 0 48.5 0C21.7142 0 0 21.7142 0 48.5C0 75.2858 21.7142 97 48.5 97Z" fill="#FBE187"/>
<path d="M69.5 97.5C85.415 97.5 78.7769 89.2525 87.5087 77.3237C93.3212 69.385 96.7544 59.5937 96.7544 49C96.7544 48.7189 96.7486 48.4392 96.7437 48.1592L72 21.5L30.1892 42.2637L36.9739 49.093C37.7774 52.0534 25 74 25 74L46 99C49 103 53.585 97.5 69.5 97.5Z" fill="#F0C36A"/>
<path d="M54.5849 52.5845C57.4508 49.719 61.2607 48.1409 65.3129 48.1409C68.0737 48.1409 70.7214 48.8739 73.0352 50.2469V24.1392H18V72.1165C18 72.9491 18.6813 73.6304 19.5139 73.6304H54.1922C48.6739 67.6887 48.8042 58.3655 54.5849 52.5845Z" fill="#EEF6FF"/>
<path d="M21.4335 72.1165V24.1392H18V72.1165C18 72.9491 18.6813 73.6304 19.5139 73.6304H22.9475C22.1148 73.6304 21.4335 72.9491 21.4335 72.1165Z" fill="#C3DDF4"/>
<path d="M72.1699 16H18.8653C18.3894 16 18 16.3894 18 16.8653V24.5684H73.0352V16.8653C73.0352 16.3894 72.6459 16 72.1699 16Z" fill="#293D7C"/>
<path d="M22.2989 16H18.8653C18.3894 16 18 16.3894 18 16.8653V24.5684H21.4335V16.8653C21.4335 16.3894 21.8229 16 22.2989 16Z" fill="#1A2B63"/>
<path d="M50.8744 58.6601H24.3306C23.9142 58.6601 23.5736 59.0007 23.5736 59.417V66.6549C23.5736 67.0712 23.9142 67.4118 24.3306 67.4118H50.7098C49.9112 64.5492 49.9656 61.4966 50.8744 58.6601Z" fill="#FF9518"/>
<path d="M27.0072 66.6549V59.417C27.0072 59.0007 27.3478 58.6601 27.7641 58.6601H24.3306C23.9142 58.6601 23.5736 59.0007 23.5736 59.417V66.6549C23.5736 67.0712 23.9142 67.4118 24.3306 67.4118H27.7641C27.3478 67.4118 27.0072 67.0712 27.0072 66.6549Z" fill="#EF8318"/>
<path d="M50.8744 58.6601H45.379V67.4118H50.7098C49.9112 64.5492 49.9656 61.4966 50.8744 58.6601Z" fill="#FFD00D"/>
<path d="M63.3353 48.2687H23.5736C22.9464 48.2687 22.4382 48.777 22.4382 49.4041C22.4382 50.0312 22.9464 50.5395 23.5736 50.5395H57.1179C58.9931 49.3313 61.1073 48.5569 63.3353 48.2687Z" fill="#91E0E8"/>
<path d="M54.29 52.8882H23.5736C22.9464 52.8882 22.4382 53.3966 22.4382 54.0237C22.4382 54.6507 22.9464 55.1591 23.5736 55.1591H52.5177C53.0267 54.3605 53.6171 53.5993 54.29 52.8882Z" fill="#91E0E8"/>
<path d="M23.2828 21.2397C22.9832 21.2397 22.6908 21.1186 22.4789 20.908C22.2683 20.696 22.1473 20.4038 22.1473 20.1042C22.1473 19.8059 22.2685 19.5138 22.4789 19.3019C22.6907 19.0899 22.983 18.9688 23.2828 18.9688C23.5812 18.9688 23.8747 19.0898 24.0851 19.3019C24.2971 19.5138 24.4182 19.806 24.4182 20.1042C24.4182 20.4038 24.2971 20.6962 24.0851 20.908C23.8747 21.1186 23.581 21.2397 23.2828 21.2397Z" fill="#E26693"/>
<path d="M27.0062 21.2397C26.7079 21.2397 26.4143 21.1186 26.2037 20.9065C25.9919 20.696 25.8708 20.4038 25.8708 20.1042C25.8708 19.8059 25.9919 19.5138 26.2037 19.3019C26.4157 19.0899 26.7079 18.9688 27.0062 18.9688C27.3059 18.9688 27.598 19.0898 27.8101 19.3019C28.0206 19.5138 28.1417 19.806 28.1417 20.1042C28.1417 20.4025 28.0204 20.6962 27.8101 20.9065C27.598 21.1186 27.306 21.2397 27.0062 21.2397Z" fill="#FFAF10"/>
<path d="M30.7312 21.2397C30.4314 21.2397 30.1393 21.1186 29.9288 20.908C29.7169 20.696 29.5958 20.4038 29.5958 20.1042C29.5958 19.8059 29.7169 19.5138 29.9288 19.3019C30.1393 19.0899 30.4314 18.9688 30.7312 18.9688C31.0294 18.9688 31.3231 19.0898 31.5336 19.3019C31.7455 19.5138 31.8666 19.806 31.8666 20.1042C31.8666 20.4038 31.7455 20.6962 31.5336 20.908C31.3216 21.1186 31.0293 21.2397 30.7312 21.2397Z" fill="#37C47A"/>
<path d="M72.1699 16H35.548V24.5684H73.0352V16.8653C73.0352 16.3894 72.6459 16 72.1699 16Z" fill="#445EA0"/>
<path d="M79.2893 74.9666L76.9666 77.4184L81.5359 82.2416C82.3552 81.4734 83.1308 80.6545 83.8587 79.7898L79.2893 74.9666Z" fill="#445EA0"/>
<path d="M81.2705 73.0457L78.6915 70.4669C78.0056 71.7516 77.1224 72.9581 76.0404 74.0399C74.9706 75.1096 73.7692 75.9996 72.4727 76.6954L75.0468 79.2694C75.3411 79.5638 75.8228 79.5638 76.1173 79.2694L81.2705 74.1162C81.5648 73.8219 81.5648 73.3402 81.2705 73.0457Z" fill="#293D7C"/>
<path d="M76.8129 77.5031L74.6117 75.3019C73.9348 75.8289 73.2195 76.2944 72.4725 76.6953L75.0466 79.2692C75.3409 79.5637 75.8226 79.5637 76.1171 79.2692L77.8834 77.503C77.5889 77.7976 77.1073 77.7976 76.8129 77.5031Z" fill="#1A2B63"/>
<path d="M76.2546 52.3703C82.2975 58.4132 82.2975 68.2109 76.2544 74.254C70.2118 80.2964 60.4142 80.2966 54.3709 74.2538C48.328 68.2109 48.3283 58.4132 54.3709 52.3704C60.4142 46.3274 70.2118 46.3272 76.2546 52.3703Z" fill="#445EA0"/>
<path d="M72.9847 70.9838C68.7479 75.2207 61.8782 75.2207 57.6409 70.9835C53.4041 66.7469 53.404 59.8771 57.6409 55.6401C61.8778 51.4033 68.7477 51.4035 72.9845 55.6401C77.2217 59.8773 77.2217 66.7468 72.9847 70.9838Z" fill="#69CDFF"/>
<path d="M72.9847 70.9838C73.3706 70.5979 73.7203 70.1897 74.0358 69.7642C69.7885 72.9138 63.7632 72.564 59.9118 68.7126C56.0607 64.8618 55.711 58.8363 58.8605 54.5891C58.4348 54.9047 58.0268 55.2544 57.6409 55.6402C53.404 59.8771 53.4041 66.7468 57.6409 70.9835C61.8782 75.2207 68.7479 75.2207 72.9847 70.9838Z" fill="#52BBEF"/>
<path d="M67.1762 57.8641C68.1796 57.8641 68.9929 57.0507 68.9929 56.0474C68.9929 55.0441 68.1796 54.2307 67.1762 54.2307C66.1729 54.2307 65.3596 55.0441 65.3596 56.0474C65.3596 57.0507 66.1729 57.8641 67.1762 57.8641Z" fill="#D9EAFC"/>
<path d="M70.9928 59.2221C71.7035 59.2221 72.2796 58.646 72.2796 57.9353C72.2796 57.2246 71.7035 56.6484 70.9928 56.6484C70.2821 56.6484 69.706 57.2246 69.706 57.9353C69.706 58.646 70.2821 59.2221 70.9928 59.2221Z" fill="#D9EAFC"/>
<path d="M32.8164 41.1751C32.8164 40.8623 32.7685 40.5816 32.6726 40.3329C32.5847 40.0762 32.4169 39.8436 32.1692 39.635C31.9215 39.4184 31.5739 39.2059 31.1264 38.9973C30.6789 38.7888 30.0996 38.5722 29.3884 38.3476C28.5974 38.0909 27.8463 37.8021 27.1351 37.4813C26.4319 37.1604 25.8087 36.7874 25.2653 36.3623C24.73 35.9291 24.3065 35.4278 23.9948 34.8583C23.6912 34.2888 23.5394 33.627 23.5394 32.873C23.5394 32.143 23.6992 31.4813 24.0188 30.8877C24.3384 30.2861 24.7859 29.7727 25.3612 29.3476C25.9365 28.9144 26.6157 28.5816 27.3988 28.3489C28.1899 28.1163 29.0568 28 29.9997 28C31.2862 28 32.4089 28.2326 33.3677 28.6979C34.3266 29.1631 35.0697 29.8008 35.5971 30.611C35.8109 30.9344 35.982 31.2765 36.1104 31.637C36.4413 32.5662 35.6006 33.3904 34.6143 33.3904H34.2297C33.4558 33.3904 32.8831 32.718 32.5048 32.0428C32.297 31.6497 31.9774 31.3409 31.5459 31.1163C31.1224 30.8917 30.587 30.7794 29.9398 30.7794C29.3165 30.7794 28.7971 30.8757 28.3816 31.0682C27.9661 31.2527 27.6545 31.5053 27.4467 31.8262C27.239 32.139 27.1351 32.492 27.1351 32.885C27.1351 33.1818 27.207 33.4505 27.3509 33.6912C27.5027 33.9318 27.7264 34.1564 28.0221 34.365C28.3177 34.5735 28.6813 34.7701 29.1128 34.9545C29.5443 35.139 30.0437 35.3195 30.611 35.496C31.5619 35.7848 32.3969 36.1096 33.116 36.4706C33.8432 36.8316 34.4505 37.2366 34.9379 37.6858C35.4253 38.135 35.7929 38.6444 36.0406 39.2139C36.2883 39.7834 36.4121 40.4291 36.4121 41.1511C36.4121 41.9131 36.2643 42.5949 35.9687 43.1965C35.673 43.7981 35.2455 44.3075 34.6862 44.7246C34.1269 45.1417 33.4596 45.4586 32.6846 45.6751C31.9095 45.8917 31.0425 46 30.0836 46C29.2206 46 28.3697 45.8877 27.5306 45.6631C26.6916 45.4305 25.9285 45.0816 25.2414 44.6163C24.5622 44.1511 24.0188 43.5575 23.6113 42.8356C23.4721 42.5889 23.3566 42.3268 23.265 42.0493C22.9525 41.1033 23.8076 40.2727 24.8039 40.2727H25.1911C25.9735 40.2727 26.5413 40.9416 26.8594 41.6564C27.0272 42.0334 27.263 42.3382 27.5666 42.5709C27.8782 42.8035 28.2458 42.9719 28.6693 43.0762C29.1008 43.1805 29.5722 43.2326 30.0836 43.2326C30.7069 43.2326 31.2183 43.1444 31.6178 42.9679C32.0253 42.7914 32.325 42.5468 32.5168 42.234C32.7165 41.9211 32.8164 41.5682 32.8164 41.1751Z" fill="#1A1A3A"/>
<path d="M49.1597 42.9438C49.9371 42.9438 50.5674 43.5741 50.5674 44.3516C50.5674 45.1291 49.9371 45.7594 49.1597 45.7594H41.14C40.3625 45.7594 39.7322 45.1291 39.7322 44.3516C39.7322 43.5741 40.3625 42.9438 41.14 42.9438H49.1597ZM40.6551 28.2406C41.6481 28.2406 42.453 29.0456 42.453 30.0385V43.9615C42.453 44.9544 41.6481 45.7594 40.6551 45.7594C39.6622 45.7594 38.8573 44.9544 38.8573 43.9615V30.0385C38.8573 29.0456 39.6622 28.2406 40.6551 28.2406ZM47.9852 35.3757C48.7427 35.3757 49.3568 35.9898 49.3568 36.7473C49.3568 37.5049 48.7427 38.119 47.9852 38.119H41.1039C40.3463 38.119 39.7322 37.5049 39.7322 36.7473C39.7322 35.9898 40.3463 35.3757 41.1039 35.3757H47.9852ZM49.1417 28.2406C49.9225 28.2406 50.5554 28.8736 50.5554 29.6544C50.5554 30.4352 49.9225 31.0682 49.1417 31.0682H41.146C40.3652 31.0682 39.7322 30.4352 39.7322 29.6544C39.7322 28.8736 40.3652 28.2406 41.146 28.2406H49.1417Z" fill="#1A1A3A"/>
<path d="M67 36.5909V37.4211C67 38.7527 66.8202 39.9479 66.4606 41.0067C66.1011 42.0655 65.5937 42.9679 64.9384 43.7139C64.2832 44.4519 63.5001 45.0174 62.5892 45.4104C61.6863 45.8035 60.6835 46 59.5808 46C58.4861 46 57.4832 45.8035 56.5723 45.4104C55.6694 45.0174 54.8863 44.4519 54.2231 43.7139C53.5599 42.9679 53.0445 42.0655 52.6769 41.0067C52.3174 39.9479 52.1376 38.7527 52.1376 37.4211V36.5909C52.1376 35.2513 52.3174 34.0561 52.6769 33.0053C53.0365 31.9465 53.5439 31.0441 54.1991 30.2981C54.8623 29.5521 55.6454 28.9826 56.5484 28.5896C57.4593 28.1965 58.4621 28 59.5568 28C60.6595 28 61.6623 28.1965 62.5652 28.5896C63.4762 28.9826 64.2592 29.5521 64.9145 30.2981C65.5777 31.0441 66.0891 31.9465 66.4487 33.0053C66.8162 34.0561 67 35.2513 67 36.5909ZM63.3683 37.4211V36.5668C63.3683 35.6364 63.2844 34.8182 63.1166 34.1123C62.9488 33.4064 62.7011 32.8128 62.3735 32.3316C62.0459 31.8503 61.6463 31.4893 61.1749 31.2487C60.7034 31 60.1641 30.8757 59.5568 30.8757C58.9495 30.8757 58.4102 31 57.9387 31.2487C57.4753 31.4893 57.0797 31.8503 56.7521 32.3316C56.4325 32.8128 56.1888 33.4064 56.021 34.1123C55.8532 34.8182 55.7693 35.6364 55.7693 36.5668V37.4211C55.7693 38.3436 55.8532 39.1618 56.021 39.8757C56.1888 40.5816 56.4365 41.1791 56.7641 41.6684C57.0917 42.1497 57.4912 42.5147 57.9627 42.7634C58.4341 43.012 58.9735 43.1364 59.5808 43.1364C60.188 43.1364 60.7274 43.012 61.1989 42.7634C61.6703 42.5147 62.0658 42.1497 62.3855 41.6684C62.7051 41.1791 62.9488 40.5816 63.1166 39.8757C63.2844 39.1618 63.3683 38.3436 63.3683 37.4211Z" fill="#1A1A3A"/>
</g>
</svg>
