<?xml version="1.0" standalone="no"?>
<!DOCTYPE svg PUBLIC "-//W3C//DTD SVG 20010904//EN"
 "http://www.w3.org/TR/2001/REC-SVG-20010904/DTD/svg10.dtd">
<svg version="1.0" xmlns="http://www.w3.org/2000/svg"
 width="64.000000pt" height="64.000000pt" viewBox="0 0 64.000000 64.000000"
 preserveAspectRatio="xMidYMid meet">

<g transform="translate(0.000000,64.000000) scale(0.100000,-0.100000)"
fill="#000000" stroke="none">
<path d="M185 591 c-48 -19 -66 -31 -134 -93 l-53 -48 56 -62 56 -61 0 -149 0
-148 210 0 210 0 0 148 0 149 56 61 56 62 -52 47 c-29 26 -62 54 -74 63 -22
17 -115 55 -120 49 -1 -2 -7 -16 -14 -32 -26 -60 -102 -58 -125 3 -13 34 -16
34 -72 11z m55 -35 c11 -31 39 -46 83 -46 32 0 54 14 80 53 12 17 14 17 57 -2
25 -11 69 -42 98 -68 l53 -48 -41 -40 -40 -39 0 31 c0 18 -4 35 -10 38 -7 4
-10 -60 -10 -184 l0 -191 -190 0 -190 0 0 190 c0 120 -4 190 -10 190 -5 0 -10
-17 -10 -37 l0 -37 -40 39 -41 40 53 48 c46 41 115 84 141 86 4 1 12 -10 17
-23z"/>
</g>
</svg>
